Coordinates
version=1
nRows=4
nColumns=63
inDegrees=yes

Units are S.I. units (second, meters, Newtons, ...)
If the header above contains a line with 'inDegrees', this indicates whether rotational values are in degrees (yes) or radians (no).

endheader
time	pelvis_tilt	pelvis_list	pelvis_rotation	pelvis_tx	pelvis_ty	pelvis_tz	hip_flexion_r	hip_adduction_r	hip_rotation_r	knee_angle_r	knee_angle_r_beta	ankle_angle_r	subtalar_angle_r	mtp_angle_r	hip_flexion_l	hip_adduction_l	hip_rotation_l	knee_angle_l	knee_angle_l_beta	ankle_angle_l	subtalar_angle_l	mtp_angle_l	L5_S1_Flex_Ext	L5_S1_Lat_Bending	L5_S1_axial_rotation	L4_L5_Flex_Ext	L4_L5_Lat_Bending	L4_L5_axial_rotation	L3_L4_Flex_Ext	L3_L4_Lat_Bending	L3_L4_axial_rotation	L2_L3_Flex_Ext	L2_L3_Lat_Bending	L2_L3_axial_rotation	L1_L2_Flex_Ext	L1_L2_Lat_Bending	L1_L2_axial_rotation	L1_T12_Flex_Ext	L1_T12_Lat_Bending	L1_T12_axial_rotation	Abs_r3	Abs_r2	Abs_r1	Abs_t1	Abs_t2	neck_flexion	neck_bending	neck_rotation	arm_flex_r	arm_add_r	arm_rot_r	elbow_flex_r	pro_sup_r	wrist_flex_r	wrist_dev_r	arm_flex_l	arm_add_l	arm_rot_l	elbow_flex_l	pro_sup_l	wrist_flex_l	wrist_dev_l
      3.91111111	     -3.12126601	      7.90999215	     41.29012296	      0.19052938	      0.89426028	      0.71212076	     15.74939459	     -6.35364151	     -6.13925589	     20.30994180	      0.35447536	     19.59534100	     18.04126814	      0.00000000	     -0.20070302	      7.56868044	     -8.42783804	      8.41617181	      0.14688991	     16.31085699	     -1.87650869	      0.00000000	      0.21835167	     -2.61294404	     -2.00373396	      0.40550088	     -3.47521558	     -2.12896733	      0.35872995	     -6.35311215	     -2.12896733	      0.24955412	     -6.35311215	     -1.75326722	      0.20276136	     -5.32831549	     -1.62803384	      0.12476614	     -4.04745032	     -1.50280047	      1.55966411	    -29.55814561	    -11.14416717	      0.00000000	      0.00000000	     28.21270663	     -3.35367500	    -43.92308554	    -70.47519375	   -115.00705159	   -157.26840533	     84.64584830	     69.16019830	     18.39181328	     10.72800808	     13.97846381	    -36.15642096	    109.89595898	     21.34282616	      6.26698095	     -7.24197018	     -5.05069200
      3.93333333	     -3.24742042	      7.76966898	     42.18809206	      0.18819093	      0.89296087	      0.71142641	     16.38906676	     -6.70811612	     -5.74081429	     21.35618346	      0.37273572	     19.33720792	     17.57550686	      0.00000000	      0.17528765	      7.55195216	     -8.37471807	      8.76996429	      0.15306475	     16.98415677	     -1.27619323	      0.00000000	      0.18244445	     -2.63324151	     -2.00075462	      0.33881758	     -3.50221120	     -2.12580179	      0.29973798	     -6.40246340	     -2.12580179	      0.20851576	     -6.40246340	     -1.75066030	      0.16941791	     -5.36970608	     -1.62561313	      0.10424876	     -4.07889109	     -1.50056597	      1.30318244	    -29.78775457	    -11.12759699	      0.00000000	      0.00000000	     28.18787487	     -2.34849611	    -43.76172456	    -80.34790486	   -115.71080771	   -167.67268732	     88.90924329	     71.54549444	     20.97331788	     13.58069515	     14.78837359	    -35.41767752	    113.60205601	     19.30390106	      7.84794813	     -5.13852052	     -4.59143152
      3.95555556	     -3.32918304	      7.45618136	     43.33156428	      0.18590824	      0.89171714	      0.71001685	     17.01118690	     -7.01531576	     -5.80752859	     22.44309165	      0.39170584	     18.89897139	     16.63135479	      0.00000000	      0.55994941	      7.34189962	     -8.78445492	      9.07868078	      0.15845287	     17.96384269	      0.42399128	      0.00000000	      0.17018384	     -2.64050809	     -2.09245263	      0.31604840	     -3.51187575	     -2.22323092	      0.27959502	     -6.42013136	     -2.22323092	      0.19450311	     -6.42013136	     -1.83089605	      0.15803271	     -5.38452409	     -1.70011776	      0.09724304	     -4.09014702	     -1.56933947	      1.21560612	    -29.86995557	    -11.63759381	      0.00000000	      0.00000000	     28.19661445	     -0.40698751	    -43.43860519	    -91.22068626	   -117.56664158	   -178.69342437	     93.99808060	     78.58071001	     22.91841897	     15.43043635	     14.89452968	    -34.38275920	    117.56884178	     16.83393491	      8.48898166	     -3.18339151	     -4.63709717
      3.97777778	     -3.38936611	      6.96770804	     44.66666053	      0.18392069	      0.89052654	      0.70806108	     17.57558282	     -7.14145495	     -5.65191169	     23.37039593	      0.40789036	     18.45216903	     14.75705260	      0.00000000	      0.88828473	      7.03983546	     -8.74228410	      9.12900141	      0.15933113	     18.60302737	      2.07525524	      0.00000000	      0.18114539	     -2.63089453	     -2.21049661	      0.33640510	     -3.49908973	     -2.34865264	      0.29760376	     -6.39675697	     -2.34865264	      0.20703106	     -6.39675697	     -1.93418453	      0.16821161	     -5.36492014	     -1.79602849	      0.10350647	     -4.07525563	     -1.65787245	      1.29390339	    -29.76120516	    -12.29411897	      0.00000000	      0.00000000	     28.23139597	      1.83256705	    -42.83010245	   -102.70745920	   -119.45393925	   -188.22657468	    100.33285142	     83.69546580	     22.84187051	     18.01048071	     14.67025297	    -33.06232980	    122.71859141	     13.97493971	      9.90562880	     -2.11356042	     -5.21803446
